<svg xmlns="http://www.w3.org/2000/svg" width="1200" height="420" viewBox="0 0 1200 420">
<rect width="100%" height="100%" fill="white"/>
<title>Chapter 1 model solids</title>
<style>
text { font-family: Arial, Helvetica, sans-serif; fill:#111; }
.panel-title { font-size:28px; font-weight:bold; }
.label { font-size:22px; }
.small { font-size:18px; }
.tiny { font-size:15px; }
.shape { fill:none; stroke:#111; stroke-width:4; }
.thin { fill:none; stroke:#111; stroke-width:2.5; }
.dash { fill:none; stroke:#555; stroke-width:2.5; stroke-dasharray:8 6; }
.point { fill:#111; }
.grid { stroke:#777; stroke-width:1.2; }
</style>
<rect x="20" y="20" width="560" height="52" rx="8" fill="#edf2f7" stroke="#aab7c4"/><text class="panel-title" x="34" y="55">CH1-A01: Model drawings of solids</text><text class="label" x="120" y="105">(i) Square pyramid</text><polygon class="shape" points="70,300 220,300 260,340 110,340"/><line class="shape" x1="165" y1="125" x2="70" y2="300"/><line class="shape" x1="165" y1="125" x2="220" y2="300"/><line class="shape" x1="165" y1="125" x2="260" y2="340"/><line class="shape" x1="165" y1="125" x2="110" y2="340"/><text class="label" x="430" y="105">(ii) Sphere</text><circle class="shape" cx="480" cy="230" r="90"/><ellipse class="thin" cx="480" cy="230" rx="90" ry="32"/><text class="label" x="690" y="105">(iii) Cuboid</text><rect class="shape" x="650" y="165" width="170" height="145"/><rect class="thin" x="705" y="125" width="170" height="145"/><line class="thin" x1="650" y1="165" x2="705" y2="125"/><line class="thin" x1="820" y1="165" x2="875" y2="125"/><line class="thin" x1="820" y1="310" x2="875" y2="270"/><line class="thin" x1="650" y1="310" x2="705" y2="270"/><text class="label" x="980" y="105">(iv) Cylinder</text><ellipse class="shape" cx="1030" cy="160" rx="85" ry="30"/><ellipse class="shape" cx="1030" cy="300" rx="85" ry="30"/><line class="shape" x1="945" y1="160" x2="945" y2="300"/><line class="shape" x1="1115" y1="160" x2="1115" y2="300"/></svg>