<svg xmlns="http://www.w3.org/2000/svg" width="1000" height="360" viewBox="0 0 1000 360"><rect width="100%" height="100%" fill="white"/><title>Integer number line model answer</title><style>text{font-family:Arial,Helvetica,sans-serif;fill:#111}.title{font-size:28px;font-weight:bold}.label{font-size:20px}.axis{stroke:#111;stroke-width:4}.tick{stroke:#111;stroke-width:2}.point{fill:#c62828}</style><rect x="20" y="20" width="960" height="52" rx="8" fill="#edf2f7" stroke="#aab7c4"/><text class="title" x="34" y="55">CH3-A01: Marking −5, −3, 3 and 7 on a number line</text><line class="axis" x1="70" y1="200" x2="930" y2="200"/><polyline class="axis" points="918,208 930,200 918,192"/><polyline class="axis" points="82,192 70,200 82,208"/><g class="tick"><line x1="110" y1="184" x2="110" y2="216"/><line x1="165" y1="184" x2="165" y2="216"/><line x1="220" y1="184" x2="220" y2="216"/><line x1="275" y1="184" x2="275" y2="216"/><line x1="330" y1="184" x2="330" y2="216"/><line x1="385" y1="184" x2="385" y2="216"/><line x1="440" y1="184" x2="440" y2="216"/><line x1="495" y1="184" x2="495" y2="216"/><line x1="550" y1="184" x2="550" y2="216"/><line x1="605" y1="184" x2="605" y2="216"/><line x1="660" y1="184" x2="660" y2="216"/><line x1="715" y1="184" x2="715" y2="216"/><line x1="770" y1="184" x2="770" y2="216"/><line x1="825" y1="184" x2="825" y2="216"/><line x1="880" y1="184" x2="880" y2="216"/></g><g class="label"><text x="100" y="255">−7</text><text x="155" y="255">−6</text><text x="210" y="255">−5</text><text x="265" y="255">−4</text><text x="320" y="255">−3</text><text x="375" y="255">−2</text><text x="430" y="255">−1</text><text x="490" y="255">0</text><text x="545" y="255">1</text><text x="600" y="255">2</text><text x="655" y="255">3</text><text x="710" y="255">4</text><text x="765" y="255">5</text><text x="820" y="255">6</text><text x="875" y="255">7</text></g><circle class="point" cx="220" cy="200" r="9"/><circle class="point" cx="330" cy="200" r="9"/><circle class="point" cx="660" cy="200" r="9"/><circle class="point" cx="880" cy="200" r="9"/><text class="label" x="335" y="315">Negative integers</text><text class="label" x="625" y="315">Positive integers</text></svg>